<svg width="213" height="24" viewBox="0 0 213 24" fill="none" xmlns="http://www.w3.org/2000/svg">
<path d="M18.5576 4.63916H11.8066V23H7.26562V4.63916H0.605469V0.960938H18.5576V4.63916ZM31.7871 18.459H23.8252L22.3115 23H17.4829L25.687 0.960938H29.895L38.1445 23H33.3159L31.7871 18.459ZM25.0513 14.7808H30.561L27.791 6.53125L25.0513 14.7808ZM51.6313 17.2178C51.6313 16.36 51.3286 15.7041 50.7231 15.25C50.1177 14.7858 49.0278 14.3014 47.4536 13.7969C45.8794 13.2822 44.6331 12.7777 43.7148 12.2832C41.2122 10.931 39.9609 9.10954 39.9609 6.81885C39.9609 5.62809 40.2939 4.56852 40.96 3.64014C41.6361 2.70166 42.5998 1.97005 43.8511 1.44531C45.1125 0.920573 46.5252 0.658203 48.0894 0.658203C49.6636 0.658203 51.0662 0.945801 52.2974 1.521C53.5285 2.0861 54.4821 2.88835 55.1582 3.92773C55.8444 4.96712 56.1875 6.14779 56.1875 7.46973H51.6465C51.6465 6.46061 51.3286 5.67855 50.6929 5.12354C50.0571 4.55843 49.1641 4.27588 48.0137 4.27588C46.9036 4.27588 46.0409 4.51302 45.4253 4.9873C44.8097 5.4515 44.502 6.06706 44.502 6.83398C44.502 7.55046 44.8602 8.15088 45.5767 8.63525C46.3032 9.11963 47.3678 9.57373 48.7705 9.99756C51.3538 10.7746 53.2358 11.7383 54.4165 12.8887C55.5972 14.0391 56.1875 15.472 56.1875 17.1875C56.1875 19.0947 55.466 20.5933 54.0229 21.6831C52.5799 22.7629 50.6374 23.3027 48.1953 23.3027C46.5 23.3027 44.9561 22.995 43.5635 22.3794C42.1709 21.7537 41.1063 20.901 40.3696 19.8213C39.6431 18.7415 39.2798 17.4902 39.2798 16.0674H43.8359C43.8359 18.4993 45.2891 19.7153 48.1953 19.7153C49.2751 19.7153 50.1177 19.4984 50.7231 19.0645C51.3286 18.6204 51.6313 18.0049 51.6313 17.2178ZM66.1777 14.1602L63.8164 16.7031V23H59.2754V0.960938H63.8164V10.9512L65.8145 8.21143L71.4302 0.960938H77.0156L69.1899 10.7544L77.2427 23H71.8389L66.1777 14.1602Z" fill="#02A9EC"/>
<path d="M96.2544 15.6587C96.0828 18.0301 95.2049 19.897 93.6206 21.2593C92.0464 22.6216 89.9676 23.3027 87.3843 23.3027C84.5588 23.3027 82.3337 22.3542 80.709 20.457C79.0944 18.5498 78.2871 15.9362 78.2871 12.6162V11.269C78.2871 9.1499 78.6605 7.28304 79.4072 5.66846C80.154 4.05387 81.2186 2.81771 82.6011 1.95996C83.9937 1.09212 85.6082 0.658203 87.4448 0.658203C89.9878 0.658203 92.0363 1.33936 93.5903 2.70166C95.1444 4.06396 96.0425 5.97624 96.2847 8.43848H91.7437C91.6326 7.01562 91.234 5.98633 90.5479 5.35059C89.8717 4.70475 88.8374 4.38184 87.4448 4.38184C85.9312 4.38184 84.7959 4.92676 84.0391 6.0166C83.2923 7.09635 82.9089 8.77653 82.8887 11.0571V12.7222C82.8887 15.1037 83.2469 16.8444 83.9634 17.9443C84.6899 19.0443 85.8302 19.5942 87.3843 19.5942C88.7869 19.5942 89.8314 19.2764 90.5176 18.6406C91.2139 17.9948 91.6125 17.0008 91.7134 15.6587H96.2544ZM107.395 14.9321H103.777V23H99.2363V0.960938H107.425C110.029 0.960938 112.037 1.54118 113.45 2.70166C114.862 3.86214 115.569 5.50195 115.569 7.62109C115.569 9.12467 115.241 10.381 114.585 11.3901C113.939 12.3892 112.955 13.1864 111.633 13.7817L116.401 22.7881V23H111.527L107.395 14.9321ZM103.777 11.2539H107.44C108.581 11.2539 109.464 10.9663 110.089 10.3911C110.715 9.80583 111.028 9.00358 111.028 7.98438C111.028 6.94499 110.73 6.1276 110.135 5.53223C109.549 4.93685 108.646 4.63916 107.425 4.63916H103.777V11.2539ZM132.295 13.4487H123.576V19.3521H133.809V23H119.035V0.960938H133.778V4.63916H123.576V9.8916H132.295V13.4487ZM148.915 18.459H140.953L139.439 23H134.611L142.815 0.960938H147.023L155.272 23H150.444L148.915 18.459ZM142.179 14.7808H147.689L144.919 6.53125L142.179 14.7808ZM172.104 4.63916H165.354V23H160.812V4.63916H154.152V0.960938H172.104V4.63916ZM192.388 12.48C192.388 14.6496 192.004 16.5518 191.237 18.1865C190.47 19.8213 189.37 21.0827 187.938 21.9707C186.515 22.8587 184.88 23.3027 183.033 23.3027C181.207 23.3027 179.577 22.8638 178.144 21.9858C176.711 21.1079 175.601 19.8566 174.814 18.2319C174.027 16.5972 173.628 14.7202 173.618 12.6011V11.5112C173.618 9.34163 174.007 7.43441 174.784 5.78955C175.571 4.1346 176.676 2.86816 178.099 1.99023C179.532 1.10221 181.166 0.658203 183.003 0.658203C184.84 0.658203 186.469 1.10221 187.892 1.99023C189.325 2.86816 190.43 4.1346 191.207 5.78955C191.994 7.43441 192.388 9.33659 192.388 11.4961V12.48ZM187.786 11.481C187.786 9.17008 187.372 7.41423 186.545 6.21338C185.717 5.01253 184.537 4.41211 183.003 4.41211C181.479 4.41211 180.304 5.00749 179.476 6.19824C178.649 7.37891 178.23 9.11458 178.22 11.4053V12.48C178.22 14.7303 178.633 16.4761 179.461 17.7173C180.288 18.9585 181.479 19.5791 183.033 19.5791C184.557 19.5791 185.728 18.9837 186.545 17.793C187.362 16.5921 187.776 14.8464 187.786 12.5557V11.481ZM203.846 14.9321H200.229V23H195.688V0.960938H203.876C206.48 0.960938 208.488 1.54118 209.901 2.70166C211.314 3.86214 212.02 5.50195 212.02 7.62109C212.02 9.12467 211.692 10.381 211.036 11.3901C210.39 12.3892 209.406 13.1864 208.084 13.7817L212.853 22.7881V23H207.979L203.846 14.9321ZM200.229 11.2539H203.892C205.032 11.2539 205.915 10.9663 206.541 10.3911C207.166 9.80583 207.479 9.00358 207.479 7.98438C207.479 6.94499 207.181 6.1276 206.586 5.53223C206.001 4.93685 205.097 4.63916 203.876 4.63916H200.229V11.2539Z" fill="black"/>
</svg>
